<svg width="415" height="351" viewBox="0 0 415 351" fill="none" xmlns="http://www.w3.org/2000/svg">
<path d="M-58.5621 208.085C-4.43686 237.628 63.6178 224.306 102.631 176.527C106.948 171.24 114.584 170.12 120.246 173.931L143.351 189.474C149.758 193.787 151.105 202.632 146.313 208.694C134.095 224.146 119.595 237.397 103.064 248.192C83.259 261.124 61.4064 269.995 38.1066 274.557C14.8067 279.12 -8.77646 279.144 -31.987 274.632C-51.3641 270.864 -69.7828 264.065 -86.9177 254.357C-93.6364 250.55 -95.7205 241.846 -91.4098 235.435L-75.8603 212.323C-72.0476 206.658 -64.5493 204.815 -58.5621 208.085Z" fill="#FAF8F5"/>
<path d="M109.771 103.001C94.801 43.1807 38.8707 2.18297 -22.7017 5.88815C-29.5163 6.2976 -35.5157 1.44033 -36.5518 -5.30365L-40.7883 -32.8255C-41.9649 -40.4606 -36.3711 -47.4455 -28.665 -48.0316C-9.02432 -49.5249 10.5481 -47.8429 29.6908 -43.0097C52.6244 -37.2171 73.9597 -27.1614 93.1064 -13.1275C112.253 0.906436 128.26 18.228 140.68 38.3516C151.049 55.1513 158.53 73.3038 163.011 92.48C164.77 100.003 159.783 107.433 152.145 108.609L124.609 112.844C117.863 113.884 111.426 109.621 109.771 103.001Z" fill="#FAF8F5"/>
<path d="M278.047 58.8937C339.057 49.7933 385.298 -1.88239 387.571 -63.5015C387.824 -70.3217 393.241 -75.8173 400.056 -76.1986L427.868 -77.7481C435.582 -78.1777 441.999 -71.9355 441.835 -64.216C441.417 -44.53 437.851 -25.2214 431.181 -6.64332C423.194 15.6118 411.115 35.8678 395.285 53.5587C379.455 71.2496 360.658 85.4963 339.419 95.9053C321.69 104.592 302.888 110.28 283.364 112.882C275.706 113.901 268.787 108.221 268.357 100.51L266.807 72.7068C266.434 65.8946 271.297 59.9013 278.047 58.8937Z" fill="#FAF8F5"/>
<path d="M317.926 179.206C349.367 232.251 414.678 255.56 472.623 234.412C479.035 232.072 486.172 235.01 489.093 241.179L501.017 266.343C504.322 273.322 500.962 281.615 493.746 284.379C475.35 291.422 456.115 295.408 436.389 296.243C412.757 297.245 389.439 293.709 367.078 285.73C344.717 277.751 324.43 265.725 306.78 249.991C292.046 236.854 279.685 221.6 269.913 204.502C266.081 197.797 268.735 189.25 275.716 185.94L300.89 174.013C307.061 171.091 314.449 173.336 317.926 179.206Z" fill="#FAF8F5"/>
</svg>
