<svg width="21" height="21" viewBox="0 0 21 21" fill="none" xmlns="http://www.w3.org/2000/svg">
<path d="M12.7137 8.28625L8.28618 12.7138C7.71743 12.145 7.36743 11.3663 7.36743 10.5C7.36743 8.7675 8.76743 7.3675 10.4999 7.3675C11.3662 7.3675 12.1449 7.7175 12.7137 8.28625Z" stroke="#9FA5C0" stroke-width="1.5" stroke-linecap="round" stroke-linejoin="round"/>
<path d="M15.5926 5.04875C14.0614 3.89375 12.3114 3.26375 10.5001 3.26375C7.41136 3.26375 4.53261 5.08375 2.52886 8.23375C1.74136 9.4675 1.74136 11.5412 2.52886 12.775C3.22011 13.86 4.02511 14.7962 4.90011 15.5487" stroke="#9FA5C0" stroke-width="1.5" stroke-linecap="round" stroke-linejoin="round"/>
<path opacity="0.4" d="M7.36743 17.0888C8.36493 17.5088 9.42368 17.7363 10.4999 17.7363C13.5887 17.7363 16.4674 15.9163 18.4712 12.7663C19.2587 11.5325 19.2587 9.45875 18.4712 8.225C18.1824 7.77 17.8674 7.34125 17.5437 6.93875" stroke="#9FA5C0" stroke-width="1.5" stroke-linecap="round" stroke-linejoin="round"/>
<path opacity="0.4" d="M13.5713 11.1125C13.3438 12.3463 12.3375 13.3525 11.1038 13.58" stroke="#9FA5C0" stroke-width="1.5" stroke-linecap="round" stroke-linejoin="round"/>
<path d="M8.28625 12.7138L1.75 19.25" stroke="#9FA5C0" stroke-width="1.5" stroke-linecap="round" stroke-linejoin="round"/>
<path d="M19.2501 1.75L12.7139 8.28625" stroke="#9FA5C0" stroke-width="1.5" stroke-linecap="round" stroke-linejoin="round"/>
</svg>
