<svg width="64" height="37" viewBox="0 0 64 37" fill="none" xmlns="http://www.w3.org/2000/svg">
<path d="M15.8963 3C7.11703 3 0 10.117 0 18.8963C0 27.6757 7.11703 34.7927 15.8963 34.7927C24.6757 34.7927 31.7927 27.6757 31.7927 18.8963C31.7927 10.117 24.6757 3 15.8963 3ZM15.8962 30.9581C9.24544 30.9581 3.83456 25.5472 3.83456 18.8964C3.83456 12.2456 9.24544 6.83475 15.8962 6.83475C22.5471 6.83475 27.9579 12.2456 27.9579 18.8964C27.9579 25.5472 22.5472 30.9581 15.8962 30.9581Z" fill="#9B9B9B"/>
<path d="M15.8964 10.0679C11.0283 10.0679 7.06787 14.0283 7.06787 18.8964C7.06787 23.7645 11.0283 27.7249 15.8964 27.7249C20.7645 27.7249 24.7249 23.7645 24.7249 18.8964C24.7249 14.0283 20.7646 10.0679 15.8964 10.0679Z" fill="#9B9B9B"/>
<path d="M41.4141 14.1911C42.6368 13.4505 43.454 12.1076 43.454 10.5737L42.8484 0.671719C42.8252 0.294281 42.5124 0 42.1342 0C41.7252 0 41.3993 0.342656 41.4196 0.750938L41.8135 8.69241C41.8135 9.13884 41.4515 9.50063 41.0052 9.50063C40.5589 9.50063 40.197 9.13866 40.197 8.69241L40.0002 0.754219C39.9898 0.334687 39.6468 9.36985e-05 39.2271 9.36985e-05C38.8074 9.36985e-05 38.4644 0.334781 38.4539 0.754219L38.2572 8.69241C38.2572 9.13884 37.8952 9.50063 37.4489 9.50063C37.0026 9.50063 36.6407 9.13866 36.6407 8.69241L37.0346 0.750938C37.0548 0.342469 36.7288 0 36.32 0C35.9418 0 35.629 0.294281 35.6059 0.671719L35 10.5738C35 12.1077 35.8171 13.4505 37.0399 14.1912C37.8357 14.6732 38.2793 15.5743 38.1767 16.4991C37.4864 22.7201 37.0177 32.8765 37.0177 33.9829C37.0177 35.5899 38.0068 36.8927 39.227 36.8927C40.4472 36.8927 41.4363 35.5898 41.4363 33.9829C41.4363 32.8765 40.9675 22.7201 40.2773 16.4991C40.1746 15.5748 40.6187 14.6729 41.4141 14.1911Z" fill="#9B9B9B"/>
<g clip-path="url(#clip0_497_190)">
<path d="M56.0999 11.0875C55.3986 10.3862 54.4662 10 53.4744 10C52.4827 10 51.5502 10.3862 50.849 11.0875L49.3335 12.603L54.5845 17.854L56.0999 16.3385C57.5476 14.8908 57.5476 12.5352 56.0999 11.0875Z" fill="#9B9B9B"/>
<path d="M48.6022 13.3342L47.0868 14.8497C45.639 16.2973 45.639 18.653 47.0868 20.1006C47.7881 20.802 48.7205 21.1882 49.7122 21.1882C50.704 21.1882 51.6364 20.802 52.3377 20.1006L53.8532 18.5852L48.6022 13.3342Z" fill="#9B9B9B"/>
<path d="M62.5535 17.5412C61.8522 16.8398 60.9198 16.4536 59.928 16.4536C58.9363 16.4536 58.0038 16.8398 57.3025 17.5412L55.7871 19.0566L61.0381 24.3076L62.5535 22.7922C64.0013 21.3445 64.0013 18.9889 62.5535 17.5412Z" fill="#9B9B9B"/>
<path d="M55.0558 19.7878L53.5404 21.3033C52.0927 22.751 52.0927 25.1066 53.5404 26.5542C54.2642 27.2781 55.215 27.64 56.1659 27.64C57.1167 27.64 58.0675 27.2781 58.7914 26.5542L60.3068 25.0388L55.0558 19.7878Z" fill="#9B9B9B"/>
</g>
<defs>
<clipPath id="clip0_497_190">
<rect width="17.64" height="17.64" fill="white" transform="translate(46 10)"/>
</clipPath>
</defs>
</svg>
