<svg width="64" height="37" viewBox="0 0 64 37" fill="none" xmlns="http://www.w3.org/2000/svg">
<path d="M47.895 3C39.1164 3 32 10.117 32 18.8963C32 27.6757 39.1164 34.7927 47.895 34.7927C56.6736 34.7927 63.79 27.6757 63.79 18.8963C63.79 10.117 56.6736 3 47.895 3ZM47.8949 30.9581C41.2447 30.9581 35.8342 25.5472 35.8342 18.8964C35.8342 12.2456 41.2447 6.83475 47.8949 6.83475C54.5452 6.83475 59.9556 12.2456 59.9556 18.8964C59.9556 25.5472 54.5452 30.9581 47.8949 30.9581Z" fill="#9B9B9B"/>
<path d="M47.8947 10.0679C43.027 10.0679 39.0669 14.0283 39.0669 18.8964C39.0669 23.7645 43.027 27.7249 47.8947 27.7249C52.7623 27.7249 56.7225 23.7645 56.7225 18.8964C56.7225 14.0283 52.7624 10.0679 47.8947 10.0679Z" fill="#9B9B9B"/>
<path d="M6.43606 14.1911C7.66294 13.4505 8.48296 12.1076 8.48296 10.5737L7.87526 0.671719C7.85202 0.294281 7.53811 0 7.15863 0C6.74819 0 6.4212 0.342656 6.44161 0.750938L6.83681 8.69241C6.83681 9.13884 6.4736 9.50063 6.02582 9.50063C5.57795 9.50063 5.21483 9.13866 5.21483 8.69241L5.01738 0.754219C5.00694 0.334687 4.66273 9.36985e-05 4.24157 9.36985e-05C3.82042 9.36985e-05 3.4763 0.334781 3.46577 0.754219L3.26831 8.69241C3.26831 9.13884 2.9051 9.50063 2.45733 9.50063C2.00945 9.50063 1.64634 9.13866 1.64634 8.69241L2.04153 0.750938C2.06185 0.342469 1.73467 0 1.32452 0C0.945039 0 0.631123 0.294281 0.607982 0.671719L0 10.5738C0 12.1077 0.819924 13.4505 2.04689 14.1912C2.84537 14.6732 3.29051 15.5743 3.1876 16.4991C2.49495 22.7201 2.0246 32.8765 2.0246 33.9829C2.0246 35.5899 3.01714 36.8927 4.24148 36.8927C5.46582 36.8927 6.45836 35.5898 6.45836 33.9829C6.45836 32.8765 5.98791 22.7201 5.29536 16.4991C5.19235 15.5748 5.63797 14.6729 6.43606 14.1911Z" fill="#9B9B9B"/>
<g clip-path="url(#clip0_497_166)">
<path d="M21.1006 11.084C20.3993 10.3849 19.4668 10 18.4749 10C17.483 10 16.5505 10.3849 15.8491 11.084L14.3335 12.5944L19.585 17.828L21.1006 16.3176C22.5485 14.8747 22.5485 12.5269 21.1006 11.084Z" fill="#9B9B9B"/>
<path d="M13.6025 13.3232L12.0869 14.8337C10.639 16.2766 10.639 18.6244 12.0869 20.0673C12.7883 20.7663 13.7208 21.1512 14.7126 21.1512C15.7045 21.1512 16.6371 20.7663 17.3384 20.0673L18.854 18.5569L13.6025 13.3232Z" fill="#9B9B9B"/>
<path d="M27.5543 17.5161C26.8529 16.8171 25.9204 16.4321 24.9285 16.4321C23.9366 16.4321 23.0041 16.8171 22.3027 17.5161L20.7871 19.0265L26.0387 24.2601L27.5543 22.7497C29.0021 21.3068 29.0021 18.959 27.5543 17.5161Z" fill="#9B9B9B"/>
<path d="M20.0561 19.7554L18.5405 21.2658C17.0926 22.7087 17.0926 25.0565 18.5405 26.4994C19.2644 27.2208 20.2153 27.5815 21.1663 27.5815C22.1172 27.5815 23.0681 27.2208 23.7921 26.4994L25.3076 24.989L20.0561 19.7554Z" fill="#9B9B9B"/>
</g>
<defs>
<clipPath id="clip0_497_166">
<rect width="17.64" height="17.5817" fill="white" transform="translate(11 10)"/>
</clipPath>
</defs>
</svg>
