<svg width="57" height="38" viewBox="0 0 57 38" fill="none" xmlns="http://www.w3.org/2000/svg">
<path d="M15.8961 1.21021C24.6754 1.21021 31.7925 8.32724 31.7925 17.1065C31.7925 25.8859 24.6754 33.0029 15.8961 33.0029C7.11682 33.0029 -0.000207901 25.8859 -0.000207901 17.1065C-0.000207901 8.32724 7.11682 1.21021 15.8961 1.21021ZM15.8962 29.1683C22.547 29.1683 27.9579 23.7575 27.9579 17.1066C27.9579 10.4558 22.547 5.04496 15.8962 5.04496C9.24542 5.04496 3.83454 10.4558 3.83454 17.1066C3.83454 23.7575 9.24532 29.1683 15.8962 29.1683Z" fill="#000"/>
<path d="M15.8961 8.27808C20.7641 8.27808 24.7246 12.2385 24.7246 17.1066C24.7246 21.9747 20.7641 25.9352 15.8961 25.9352C11.028 25.9352 7.06755 21.9747 7.06755 17.1066C7.06755 12.2385 11.0279 8.27808 15.8961 8.27808Z" fill="#000"/>
<path d="M38.624 14.6103C37.4013 13.8697 36.5841 12.5268 36.5841 10.9929L37.1897 1.09091C37.2129 0.713471 37.5257 0.419189 37.9039 0.419189C38.3129 0.419189 38.6388 0.761846 38.6185 1.17013L38.2246 9.1116C38.2246 9.55803 38.5866 9.91981 39.0328 9.91981C39.4792 9.91981 39.8411 9.55785 39.8411 9.1116L40.0378 1.17341C40.0482 0.753877 40.3913 0.419283 40.811 0.419283C41.2307 0.419283 41.5736 0.753971 41.5841 1.17341L41.7809 9.1116C41.7809 9.55803 42.1429 9.91981 42.5891 9.91981C43.0355 9.91981 43.3974 9.55785 43.3974 9.1116L43.0035 1.17013C42.9833 0.761658 43.3093 0.419189 43.7181 0.419189C44.0963 0.419189 44.4091 0.713471 44.4322 1.09091L45.0381 10.993C45.0381 12.5269 44.221 13.8697 42.9982 14.6104C42.2024 15.0924 41.7588 15.9935 41.8614 16.9183C42.5516 23.1393 43.0204 33.2957 43.0204 34.4021C43.0204 36.0091 42.0312 37.3119 40.8111 37.3119C39.5909 37.3119 38.6018 36.009 38.6018 34.4021C38.6018 33.2957 39.0706 23.1393 39.7608 16.9183C39.8635 15.994 39.4194 15.0921 38.624 14.6103Z" fill="#000"/>
<circle cx="2" cy="2" r="2" transform="matrix(-1 0 0 1 56.0068 16)" fill="#000"/>
</svg>
