<svg width="56" height="38" viewBox="0 0 56 38" fill="none" xmlns="http://www.w3.org/2000/svg">
<path d="M39.1107 1.21045C30.3314 1.21045 23.2144 8.32748 23.2144 17.1068C23.2144 25.8861 30.3314 33.0031 39.1107 33.0031C47.89 33.0031 55.007 25.8861 55.007 17.1068C55.007 8.32748 47.89 1.21045 39.1107 1.21045ZM39.1106 29.1686C32.4598 29.1686 27.0489 23.7577 27.0489 17.1069C27.0489 10.4561 32.4598 5.0452 39.1106 5.0452C45.7614 5.0452 51.1723 10.4561 51.1723 17.1069C51.1723 23.7577 45.7615 29.1686 39.1106 29.1686Z" fill="#000"/>
<path d="M39.1108 8.27832C34.2427 8.27832 30.2822 12.2388 30.2822 17.1069C30.2822 21.9749 34.2427 25.9354 39.1108 25.9354C43.9788 25.9354 47.9393 21.9749 47.9393 17.1069C47.9393 12.2388 43.9789 8.27832 39.1108 8.27832Z" fill="#000"/>
<path d="M6.41409 14.6103C7.63678 13.8697 8.454 12.5268 8.454 10.9929L7.84838 1.09091C7.82522 0.713471 7.51237 0.419189 7.13419 0.419189C6.72516 0.419189 6.39928 0.761846 6.41962 1.17013L6.81347 9.1116C6.81347 9.55803 6.4515 9.91982 6.00525 9.91982C5.55891 9.91982 5.19703 9.55785 5.19703 9.1116L5.00025 1.17341C4.98984 0.753877 4.64681 0.419283 4.22709 0.419283C3.80737 0.419283 3.46444 0.753971 3.45394 1.17341L3.25716 9.1116C3.25716 9.55803 2.89519 9.91982 2.44894 9.91982C2.00259 9.91982 1.64072 9.55785 1.64072 9.1116L2.03456 1.17013C2.05481 0.761658 1.72875 0.419189 1.32 0.419189C0.941813 0.419189 0.628969 0.713471 0.605906 1.09091L0 10.993C0 12.5269 0.817125 13.8697 2.03991 14.6104C2.83566 15.0924 3.27928 15.9935 3.17672 16.9183C2.48644 23.1393 2.01769 33.2957 2.01769 34.4021C2.01769 36.0091 3.00684 37.3119 4.227 37.3119C5.44716 37.3119 6.43631 36.009 6.43631 34.4021C6.43631 33.2957 5.96747 23.1393 5.27728 16.9183C5.17462 15.994 5.61872 15.0921 6.41409 14.6103Z" fill="#000"/>
<circle cx="15.4541" cy="18" r="2" fill="#000"/>
</svg>
