<svg width="63" height="37" viewBox="0 0 63 37" fill="none" xmlns="http://www.w3.org/2000/svg">
<path d="M46.895 3C38.1164 3 31 10.117 31 18.8963C31 27.6757 38.1164 34.7927 46.895 34.7927C55.6736 34.7927 62.79 27.6757 62.79 18.8963C62.79 10.117 55.6736 3 46.895 3ZM46.8949 30.9581C40.2447 30.9581 34.8342 25.5472 34.8342 18.8964C34.8342 12.2456 40.2447 6.83475 46.8949 6.83475C53.5452 6.83475 58.9556 12.2456 58.9556 18.8964C58.9556 25.5472 53.5452 30.9581 46.8949 30.9581Z" fill="#9B9B9B"/>
<path d="M46.8942 10.0679C42.0265 10.0679 38.0664 14.0283 38.0664 18.8964C38.0664 23.7645 42.0265 27.7249 46.8942 27.7249C51.7618 27.7249 55.722 23.7645 55.722 18.8964C55.722 14.0283 51.7619 10.0679 46.8942 10.0679Z" fill="#9B9B9B"/>
<path d="M26.286 14.1911C27.4842 13.4505 28.2851 12.1076 28.2851 10.5737L27.6916 0.671719C27.6689 0.294281 27.3623 0 26.9917 0C26.5908 0 26.2714 0.342656 26.2914 0.750938L26.6773 8.69241C26.6773 9.13884 26.3226 9.50063 25.8853 9.50063C25.4478 9.50063 25.0932 9.13866 25.0932 8.69241L24.9004 0.754219C24.8902 0.334687 24.554 9.36985e-05 24.1426 9.36985e-05C23.7313 9.36985e-05 23.3952 0.334781 23.3849 0.754219L23.1921 8.69241C23.1921 9.13884 22.8373 9.50063 22.4 9.50063C21.9626 9.50063 21.6079 9.13866 21.6079 8.69241L21.9939 0.750938C22.0138 0.342469 21.6942 0 21.2936 0C20.923 0 20.6164 0.294281 20.5938 0.671719L20 10.5738C20 12.1077 20.8008 13.4505 21.9992 14.1912C22.779 14.6732 23.2138 15.5743 23.1133 16.4991C22.4368 22.7201 21.9774 32.8765 21.9774 33.9829C21.9774 35.5899 22.9468 36.8927 24.1426 36.8927C25.3383 36.8927 26.3077 35.5898 26.3077 33.9829C26.3077 32.8765 25.8482 22.7201 25.1719 16.4991C25.0712 15.5748 25.5065 14.6729 26.286 14.1911Z" fill="#9B9B9B"/>
<g clip-path="url(#clip0_497_141)">
<path d="M10.1006 10.1098C9.39929 9.39414 8.46675 9 7.47487 9C6.483 9 5.55045 9.39414 4.84912 10.1098L3.3335 11.6564L8.58504 17.015L10.1006 15.4684C11.5485 13.9911 11.5485 11.5872 10.1006 10.1098Z" fill="#9B9B9B"/>
<path d="M2.60251 12.4026L1.08689 13.9491C-0.360993 15.4264 -0.360993 17.8303 1.08689 19.3077C1.78826 20.0234 2.72076 20.4175 3.71264 20.4175C4.70451 20.4175 5.63706 20.0234 6.33843 19.3077L7.85401 17.7612L2.60251 12.4026Z" fill="#9B9B9B"/>
<path d="M16.5543 16.6958C15.8529 15.9801 14.9204 15.5859 13.9285 15.5859C12.9366 15.5859 12.0041 15.9801 11.3027 16.6958L9.78711 18.2423L15.0387 23.6009L16.5543 22.0544C18.0021 20.577 18.0021 18.1731 16.5543 16.6958Z" fill="#9B9B9B"/>
<path d="M9.0561 18.9885L7.54047 20.535C6.09263 22.0124 6.09263 24.4162 7.54047 25.8936C8.26441 26.6323 9.21532 27.0016 10.1663 27.0016C11.1172 27.0016 12.0681 26.6323 12.7921 25.8936L14.3076 24.3471L9.0561 18.9885Z" fill="#9B9B9B"/>
</g>
<defs>
<clipPath id="clip0_497_141">
<rect width="17.64" height="18.0016" fill="white" transform="translate(0 9)"/>
</clipPath>
</defs>
</svg>
