<svg width="20" height="20" viewBox="0 0 20 20" fill="none" xmlns="http://www.w3.org/2000/svg">
<g clip-path="url(#clip0_10_476)">
<path d="M16.7563 3.2334C15.1109 1.58887 12.4344 1.58887 10.789 3.2334L7.31006 6.71234L11.2599 10.6621C12.0728 9.98518 13.1035 9.5613 14.2415 9.5613C14.8942 9.5613 15.5154 9.6969 16.0806 9.93902L16.7563 9.20077C18.4013 7.55577 18.4013 4.87887 16.7563 3.2334Z" fill="#000"/>
<path d="M10.6023 11.3305L6.64696 7.37524L3.24203 10.7835C1.59706 12.4285 1.59706 15.1054 3.24203 16.7509C4.88743 18.3953 7.59515 18.4267 9.24062 16.7821L9.93087 16.0885C9.68875 15.5233 9.55315 14.9022 9.55315 14.2494C9.55318 13.1406 9.95631 12.1341 10.6023 11.3305Z" fill="#000"/>
<path d="M10.4907 14.2494C10.4907 16.1602 11.9249 17.7196 13.7724 17.9527V10.5461C11.9249 10.7792 10.4907 12.3386 10.4907 14.2494Z" fill="#000"/>
<path d="M14.71 10.5461V17.9527C16.5575 17.7196 17.9917 16.1602 17.9917 14.2494C17.9917 12.3386 16.5576 10.7792 14.71 10.5461Z" fill="#000"/>
</g>
<defs>
<clipPath id="clip0_10_476">
<rect width="16" height="16" fill="white" transform="translate(2 2)"/>
</clipPath>
</defs>
</svg>
