<svg width="414" height="896" viewBox="0 0 414 896" fill="none" xmlns="http://www.w3.org/2000/svg">
<g clip-path="url(#clip0_350_359)">
<rect width="414" height="896" fill="#8E97FD"/>
<circle cx="207" cy="615" r="246" fill="#9AA2FD"/>
<circle cx="207" cy="615" r="246" fill="#949DFF"/>
<circle cx="207" cy="615" r="211" fill="#9AA2FD"/>
<circle cx="207" cy="615" r="211" fill="#99A1FF"/>
<circle cx="207" cy="615" r="177" fill="#9AA2FD"/>
<circle cx="207" cy="615" r="177" fill="#9EA6FF"/>
<path d="M296.4 424C294.829 415.773 286.145 411.573 282 410.502C291.949 407.931 296.618 415.858 297.709 420.143C308.705 413.973 315.818 418.001 318 420.786C309.622 418.215 300.109 421.857 296.4 424Z" fill="#B4BAFF"/>
<path d="M61.8 440C60.84 435.299 55.5333 432.899 53 432.287C59.08 430.818 61.9333 435.348 62.6 437.796C69.32 434.27 73.6667 436.572 75 438.164C69.88 436.694 64.0667 438.776 61.8 440Z" fill="#B4BAFF"/>
<circle cx="207" cy="615" r="142" fill="#A3ABFF"/>
<rect x="-2" y="654" width="416" height="266" fill="#8C96FF"/>
<path d="M66.5835 622L-9 655H421L347.498 622H66.5835Z" fill="#8C96FF"/>
<path d="M180.48 560.64L166.2 583.84L193.59 616.37H221.21L246.96 583.29L231.02 560.64H180.48Z" fill="#3F4553"/>
<path d="M166.2 583.84C166.2 583.84 104.77 588.59 89.3599 604.68C73.9499 620.77 81.1999 638.24 96.2099 638.24C123.84 638.24 182.3 639.93 209.96 638.24L211.61 600.57L166.2 583.84Z" fill="#3F4553"/>
<path d="M245.37 583.04C245.37 583.04 309.7 588.59 325.11 604.68C340.52 620.77 331.64 631.43 318.26 638.24C299.43 647.83 231.56 646.24 196.36 634.59L202.87 600.57L245.37 583.04Z" fill="#3F4553"/>
<path d="M248.2 614.64L243.85 603.4L249.27 600.99C249.27 600.99 248.52 594.34 255.15 593.06C261.78 591.78 269.68 596.06 277.38 592.61C284.48 589.43 293.17 586.5 301.28 590.9C302.48 591.55 303.04 592.98 302.63 594.28L302.6 594.38C302.19 595.69 300.91 596.5 299.54 596.36C296.68 596.07 291.58 596.13 286.54 599.18C277.85 604.46 248.2 614.64 248.2 614.64Z" fill="#FEBBA0"/>
<path d="M298.81 615.28C298.81 615.28 255.88 607.65 165.45 606.47L156.72 618.31C156.72 618.31 179.22 631.17 200.34 635.82C221.46 640.47 294.37 655.11 326.93 632.56L298.81 615.28Z" fill="#3F4553"/>
<path d="M200.34 635.83C178.69 630.83 156.04 618.01 156.04 618.01L157.39 615.72" stroke="#6E758F" stroke-width="1.5925" stroke-miterlimit="10" stroke-linecap="round"/>
<path d="M165.45 606.47C165.45 606.47 264.8 604.2 291.31 619.58" stroke="#6E758F" stroke-width="1.5925" stroke-miterlimit="10" stroke-linecap="round"/>
<path d="M116.68 612.91C116.68 612.91 134.82 604.41 147.22 609.98" stroke="#6E758F" stroke-width="1.5925" stroke-miterlimit="10" stroke-linecap="round"/>
<path d="M158.81 616.35L165.44 606.25L158.81 602.66C158.81 602.66 156.49 596.85 149.99 595.05C143.48 593.26 138.85 596.15 131.44 592.11C124.61 588.38 116.17 584.79 107.75 588.54C106.51 589.09 105.83 590.47 106.14 591.8L106.16 591.9C106.47 593.24 107.68 594.14 109.05 594.11C111.92 594.04 117.01 594.5 121.79 597.94C130.04 603.88 158.81 616.35 158.81 616.35Z" fill="#FEBBA0"/>
<path d="M215.89 606.83L243.05 604.16" stroke="#6E758F" stroke-width="1.5925" stroke-miterlimit="10" stroke-linecap="round"/>
<path d="M181.35 595.06L196.5 606.03" stroke="#6E758F" stroke-width="1.5925" stroke-miterlimit="10" stroke-linecap="round"/>
<path d="M177.44 445.77C178.08 452.03 183.53 456.59 189.61 455.97C195.69 455.35 200.1 449.77 199.46 443.52C198.82 437.26 193.37 432.7 187.29 433.32C181.22 433.93 176.81 439.51 177.44 445.77Z" fill="#3F4553"/>
<path d="M200.15 450.32C200.15 450.32 180.83 447.4 177.79 429.17C175.11 413.06 185.92 400.15 197.77 397.92C197.78 397.92 226.25 441.8 200.15 450.32Z" fill="#3F4553"/>
<path d="M200.59 399.65C199.17 400.35 197.82 401.27 196.59 402.46C185.58 413.05 192.55 433.61 202.41 442.89C207.87 448.02 215.85 450.41 222.82 447.79C233.01 443.96 236.2 432.42 234.13 422.14C232.59 414.48 228.34 407.25 222.07 402.75C215.8 398.26 207.33 396.36 200.59 399.65Z" fill="#FDBCA0"/>
<path d="M198.76 436.69C196.83 438.6 193.47 439.38 190.89 438.47C188.31 437.56 186.19 435.13 185.52 432.31C184.92 429.78 185.57 426.9 187.43 425.35C189.29 423.8 192.64 423.9 194.23 425.91L198.76 436.69Z" fill="#FDBCA0"/>
<path d="M195.94 429.97L197.97 466.31C198.24 473.03 203.69 478.37 210.41 478.5C218.17 478.66 224.26 471.88 223.27 464.18L219.17 430.44L195.94 429.97Z" fill="#FDBCA0"/>
<path d="M221.93 453.22L221.42 448.24C221.42 448.24 211.42 451.31 202.41 442.88C202.41 442.89 207.6 452.36 221.93 453.22Z" fill="#DF8370"/>
<path d="M191.97 424.48C204.99 423.81 216.87 415.07 223.43 403.81C223.43 403.81 211.45 392.44 193.94 399.09C179.43 404.59 191.97 424.48 191.97 424.48Z" fill="#3F4553"/>
<path d="M193.4 432.84C191.9 432.99 190.59 432.18 190.47 431.03C190.38 430.16 190.99 429.35 191.93 428.93" stroke="#444359" stroke-width="1.1144" stroke-miterlimit="10" stroke-linecap="round"/>
<path d="M224.68 430C224.98 429.09 225.5 428.37 226.08 427.69L226.36 428.57C225.7 428.32 225.34 427.94 224.97 427.57C224.62 427.18 224.31 426.79 224.03 426.37C223.47 425.54 223 424.66 222.66 423.73C223.36 424.44 224 425.17 224.67 425.87C225.01 426.21 225.33 426.56 225.68 426.86C226.01 427.15 226.4 427.45 226.67 427.52L227.48 427.71L226.95 428.4C226.41 429.11 225.81 429.77 224.98 430.25C224.88 430.31 224.76 430.27 224.7 430.18C224.67 430.11 224.67 430.05 224.68 430Z" fill="#444359"/>
<path d="M227.61 433.18C227.21 434 226.53 434.71 225.65 435.14C224.78 435.59 223.7 435.68 222.74 435.4C221.76 435.13 221 434.49 220.35 433.83C220.06 433.47 219.77 433.1 219.53 432.72C219.32 432.31 219.1 431.91 218.94 431.49C219.31 431.77 219.63 432.07 219.95 432.37L220.94 433.19C221.64 433.65 222.3 434.15 223.06 434.33C223.79 434.56 224.57 434.55 225.34 434.34C226.1 434.12 226.86 433.69 227.61 433.18Z" fill="#444359"/>
<path d="M217.14 420.11C217.53 421.27 217.75 422.47 217.67 423.76C217.62 424.39 217.47 425.08 217 425.69C216.52 426.31 215.71 426.58 215 426.56C214.27 426.55 213.55 426.23 213.06 425.78C212.55 425.33 212.15 424.81 211.85 424.26C211.25 423.15 210.87 421.99 210.68 420.77C210.65 420.58 210.78 420.4 210.97 420.36C211.15 420.33 211.31 420.44 211.36 420.6L211.37 420.62C211.71 421.7 212.16 422.79 212.74 423.73C213.32 424.64 214.11 425.48 215.04 425.45C215.5 425.47 215.93 425.35 216.19 425.02C216.48 424.7 216.62 424.18 216.7 423.65C216.85 422.58 216.75 421.4 216.57 420.27V420.25C216.54 420.09 216.66 419.93 216.82 419.91C216.95 419.89 217.09 419.98 217.14 420.11Z" fill="#444359"/>
<path d="M231.66 417.84C231.99 418.82 232.17 419.82 232.15 420.89C232.14 421.42 232.04 422 231.7 422.55C231.37 423.13 230.63 423.49 229.99 423.46C229.32 423.45 228.71 423.1 228.32 422.69C227.92 422.27 227.61 421.82 227.38 421.34C226.93 420.38 226.65 419.4 226.51 418.37C226.48 418.18 226.62 418 226.82 417.97C226.99 417.95 227.15 418.05 227.2 418.21L227.21 418.23C227.5 419.13 227.85 420.05 228.3 420.85C228.75 421.63 229.36 422.38 230.03 422.34C230.37 422.35 230.64 422.25 230.82 421.97C231.02 421.69 231.12 421.26 231.18 420.81C231.28 419.91 231.2 418.92 231.09 417.98V417.96C231.07 417.8 231.19 417.65 231.35 417.62C231.48 417.62 231.62 417.71 231.66 417.84Z" fill="#444359"/>
<path d="M242.46 469.61C242.37 463.51 222.59 458.63 222.59 458.63C221.35 460 219.22 462.31 210.25 462.31C201.67 462.31 198.24 460.09 196.9 458.63H188.41C186.52 458.63 184.79 459.71 184 461.43C166.99 498.64 176.55 540.2 180.47 560.63C180.83 562.51 216.33 561.24 232.34 562.51C235.8 562.8 242.8 491.78 242.46 469.61Z" fill="#FEE6C6"/>
<path d="M201.15 522.23C202.91 508.01 205.06 499.48 206.71 502.28C208.17 504.76 207.36 517.2 205.17 529.2C205.18 529.2 200.4 528.32 201.15 522.23Z" fill="#FEBBA0"/>
<path d="M212.77 522.23C211.01 508.01 208.86 499.48 207.21 502.28C205.75 504.76 206.56 517.2 208.75 529.2C208.74 529.2 213.52 528.32 212.77 522.23Z" fill="#FEBBA0"/>
<path d="M271.39 518.7H249.04L252.59 541.4L212.03 521.61C211.89 520.09 211.7 518.21 211.47 516.22C209.94 516.22 208.4 516.22 206.87 516.2C206.88 517.93 206.91 519.1 206.91 519.1C206.91 519.1 206.12 529.54 207.93 533.02C211.37 539.64 246.56 560.96 256.33 563.49C256.94 563.65 257.55 563.77 258.16 563.85C267.59 565.18 273.84 559.89 273.77 550.37L271.39 518.7Z" fill="#FEBBA0"/>
<path d="M202.05 516.12C201.7 518.36 201.39 520.52 201.15 522.23L161.76 540.47L163.42 518.71H141.07L138.7 550.4C138.64 559.92 144.89 565.2 154.31 563.88C154.92 563.79 155.53 563.67 156.14 563.52C165.91 560.99 198.64 543.3 205.63 532.98C207.7 529.93 206.72 519.66 206.72 519.66C206.72 519.66 206.72 518.24 206.68 516.22C205.14 516.19 203.6 516.16 202.05 516.12Z" fill="#FEBBA0"/>
<path d="M169.14 531.12C177.88 505.27 177.81 505.25 188.54 458.64C181.36 459.13 180.62 457.96 174.96 460.9C157.98 469.72 141.99 498.69 137.28 531.12H169.14Z" fill="#FEE6C6"/>
<path d="M246.96 528.57C241.82 510.26 222.59 458.64 222.59 458.64C241.82 457.99 268.06 483.06 274.34 525.22L246.96 528.57Z" fill="#FEE6C6"/>
<path d="M242.47 488.14L238.42 521.42" stroke="#EED2AD" stroke-width="1.5925" stroke-miterlimit="10" stroke-linecap="round"/>
<path d="M172.82 493.6L176.04 529.2" stroke="#EED2AD" stroke-width="1.5925" stroke-miterlimit="10" stroke-linecap="round"/>
<path d="M345.248 461.025C297.249 447.525 304.248 488.025 314.248 488.025C318.357 488.025 326.873 489.025 337.249 489.025H368.749C408.748 489.025 420.249 486.358 420.749 485.525C424.249 459.025 403.082 461.525 391.749 464.525C393.582 454.692 391.649 434.825 369.248 434.025C346.848 433.225 343.915 451.692 345.248 461.025Z" fill="#B4BAFF"/>
<path d="M7.75573 385.787C-13.2717 379.899 -10.2054 397.564 -5.8247 397.564C-4.0249 397.564 -0.294134 398 4.25144 398H18.0509C35.5738 398 40.6117 396.837 40.831 396.473C42.3643 384.915 33.0916 386.005 28.1267 387.314C28.9299 383.025 28.0828 374.36 18.2696 374.011C8.45638 373.662 7.17151 381.717 7.75573 385.787Z" fill="#A6ADFB"/>
<circle cx="39" cy="363" r="6" fill="#A6ADFB"/>
<circle cx="3" cy="3" r="3" transform="matrix(1 0 0 -1 27 352)" fill="#A6ADFB"/>
</g>
<defs>
<clipPath id="clip0_350_359">
<rect width="414" height="896" fill="white"/>
</clipPath>
</defs>
</svg>
